# xmcd CD database file
# Copyright (C) 1995-1998 Ti Kan
#
# Track frame offsets:
#	150
#	14540
#	29550
#	44140
#	56740
#	71595
#	82775
#	100392
#	117632
#	134975
#	157702
#	173950
#
# Disc length: 2561 seconds
#
# Revision: 1
# Processed by: cddbd v1.4PL0 Copyright (c) Steve Scherf et al.
# Submitted via: CDex 1.30Release
#
DISCID=ae09ff0c
DTITLE=Bastard Sons of Johnny Cash - Walk Alone
DYEAR=1900
DGENRE=Country
TTITLE0=Texas Sun
TTITLE1=Blade
TTITLE2=Seven Steps
TTITLE3=Interstate Cannonball
TTITLE4=Walk Alone
TTITLE5=Truckstop in La Grange
TTITLE6=440 Horses
TTITLE7=Lonesome Sky
TTITLE8=Trains Gonna Roll
TTITLE9=Memphis Women
TTITLE10=Silver Wings
TTITLE11=Crying Over You
EXTD=ID3G:   2
EXTT0=
EXTT1=
EXTT2=
EXTT3=
EXTT4=
EXTT5=
EXTT6=
EXTT7=
EXTT8=
EXTT9=
EXTT10=
EXTT11=
PLAYORDER=
